<?xml version="1.0" encoding="UTF-8"?>
<svg id="_圖層_1" data-name="圖層 1" xmlns="http://www.w3.org/2000/svg" xmlns:xlink="http://www.w3.org/1999/xlink" viewBox="0 0 90 110">
  <defs>
    <style>
      .cls-1 {
        fill: #ffe873;
      }

      .cls-1, .cls-2, .cls-3, .cls-4, .cls-5, .cls-6, .cls-7, .cls-8, .cls-9, .cls-10, .cls-11, .cls-12 {
        stroke-width: 0px;
      }

      .cls-13 {
        stroke: #432913;
        stroke-width: 2.54px;
      }

      .cls-13, .cls-14 {
        fill: none;
        stroke-linecap: round;
        stroke-miterlimit: 10;
      }

      .cls-2 {
        fill: url(#_未命名漸層_8);
      }

      .cls-3 {
        fill: #e4987c;
      }

      .cls-4 {
        fill: url(#_未命名漸層_8-2);
      }

      .cls-5 {
        fill: #efa253;
      }

      .cls-6 {
        fill: #432913;
      }

      .cls-7 {
        fill: #a9a9a9;
      }

      .cls-8 {
        fill: #fff;
      }

      .cls-9 {
        fill: #8b6e39;
      }

      .cls-10 {
        fill: #73572c;
      }

      .cls-11 {
        fill: #f3cd5f;
      }

      .cls-14 {
        stroke: #8b6e39;
        stroke-width: 1.82px;
      }

      .cls-12 {
        fill: #d4724d;
      }
    </style>
    <radialGradient id="_未命名漸層_8" data-name="未命名漸層 8" cx="48.79" cy="57.06" fx="48.79" fy="57.06" r="37.19" gradientUnits="userSpaceOnUse">
      <stop offset="0" stop-color="#60a2ac"/>
      <stop offset="1" stop-color="#ebf7f8"/>
    </radialGradient>
    <radialGradient id="_未命名漸層_8-2" data-name="未命名漸層 8" cx="-550.15" cy="-1052.52" fx="-550.15" fy="-1052.52" r="32.04" gradientTransform="translate(-366.51 1170.95) rotate(48.18)" xlink:href="#_未命名漸層_8"/>
  </defs>
  <path class="cls-6" d="M57.4,103.64c.23.47.79.77,1.48.74.24,0,.5-.05.75-.14.25-.09.48-.2.68-.34.57-.4.84-.98.74-1.49l-3.07-15.48c-.01-.05-.02-.11-.04-.16-.54-1.42-2.58-2.02-4.61-1.34-2.03.68-3.3,2.39-2.87,3.85.02.05.04.1.06.15l6.89,14.2Z"/>
  <path class="cls-6" d="M63.84,103.92c0,1.33-1.38,1.37-3.09,1.37s-3.09-.03-3.09-1.37,1.38-2.41,3.09-2.41,3.09,1.08,3.09,2.41Z"/>
  <path class="cls-6" d="M21.24,102.41c-.1.51.17,1.09.74,1.49.2.14.43.26.68.34.25.09.51.13.75.14.7.03,1.26-.27,1.48-.74l6.88-14.2s.05-.1.06-.15c.43-1.46-.84-3.17-2.87-3.85s-4.07-.08-4.61,1.34c-.02.05-.03.1-.04.16l-3.07,15.48Z"/>
  <path class="cls-6" d="M18.46,103.92c0,1.33,1.38,1.37,3.09,1.37,1.71,0,3.09-.03,3.09-1.37s-1.38-2.41-3.09-2.41c-1.71,0-3.09,1.08-3.09,2.41Z"/>
  <path class="cls-2" d="M50.51,52.58c4.03-2.45,19.46-11.19,31.51-9.06,3.44.61,5.89,3.68,5.7,7.17-.32,5.78-3.03,9.58-5.12,11.69-1.32,1.32-3.12,2.04-4.98,2.01-8.07-.14-32.68-1.23-29.27-9.35.43-1.03,1.21-1.88,2.17-2.46Z"/>
  <path class="cls-4" d="M54.9,57.68c3.89,1.18,18.37,6.07,23.92,15.03,1.59,2.56,1.02,5.9-1.33,7.78-3.9,3.12-7.89,3.56-10.45,3.43-1.6-.08-3.1-.83-4.15-2.04-4.55-5.26-17.99-21.69-10.81-24.16.91-.31,1.9-.3,2.83-.02Z"/>
  <g>
    <ellipse class="cls-6" cx="65.82" cy="71.55" rx="3.04" ry="4.49" transform="translate(-19.95 117.33) rotate(-75.48)"/>
    <path class="cls-6" d="M62.05,70c-.17.52.12,1.23.8,1.85.24.22.52.42.83.59.31.17.63.29.94.37.89.22,1.67-.02,2.04-.55.9-1.37,1.76-2.82,2.44-4.49.67-1.66,1.19-3.57,1.14-5.79-.01-2.19-.86-4.75-2.42-6.65-1.53-1.93-3.49-3.24-5.4-4.14-.08-.04-.16-.07-.25-.09-1.19-.35-2.38.02-3.24.84-.87.82-1.41,2.09-1.49,3.52-.11,2.85.52,5.23,1.42,5.63.03.01.07.02.11.02.92.08,1.66.28,2.2.53.28.12.51.27.73.48.22.21.43.49.58.88.33.76.46,1.89.35,3.12-.1,1.23-.4,2.56-.79,3.9Z"/>
  </g>
  <path class="cls-7" d="M69.29,84.52c.82.54.39,1.82-.59,1.76l-5.41-.35-9.03-.58,1.47-4.4,1.47-4.4,7.56,4.98,4.53,2.99Z"/>
  <path class="cls-9" d="M62.72,73.57c0,12.88-9.66,19.28-21.57,19.28s-21.57-6.4-21.57-19.28,9.66-27.36,21.57-27.36,21.57,14.48,21.57,27.36Z"/>
  <path class="cls-10" d="M41.15,46.21c-1.16,0-2.3.14-3.41.4,10.29,2.41,18.16,15.33,18.16,26.96s-7.87,17.97-18.16,19.1c1.11.12,2.25.18,3.41.18,11.91,0,21.57-6.4,21.57-19.28s-9.66-27.36-21.57-27.36Z"/>
  <path class="cls-1" d="M20.09,78.46c4.17,3.91,12.04,6.55,21.06,6.55s16.88-2.64,21.06-6.55c.34-1.51.52-3.14.52-4.89,0-2.15-.27-4.34-.77-6.5-3.36,4.72-11.41,8.05-20.8,8.05s-17.44-3.33-20.8-8.05c-.5,2.16-.77,4.36-.77,6.5,0,1.75.18,3.38.52,4.89Z"/>
  <path class="cls-11" d="M62.7,72.63c0-.19-.02-.38-.03-.56,0-.06,0-.12-.01-.19-.03-.5-.08-1.01-.14-1.51,0-.04,0-.08-.01-.12-.03-.23-.06-.46-.09-.7,0-.03,0-.05-.01-.08-.08-.53-.17-1.06-.28-1.6,0,0,0-.01,0-.02-.05-.27-.11-.53-.18-.8,0,0,0,0,0,0-1.35,1.9-3.46,3.57-6.1,4.89.03.54.05,1.08.05,1.62,0,3.74-.82,6.93-2.26,9.58,3.55-1.15,6.51-2.76,8.57-4.69.04-.18.08-.37.12-.56,0-.01,0-.03,0-.04.03-.17.06-.35.09-.52,0-.03,0-.05.01-.08.03-.16.05-.33.07-.5,0-.04,0-.07.01-.11.02-.16.04-.31.06-.47,0-.05.01-.09.02-.14.02-.15.03-.3.04-.45,0-.05,0-.11.01-.16.01-.14.02-.29.03-.44,0-.06,0-.12.01-.18,0-.15.01-.3.02-.45,0-.06,0-.11,0-.17,0-.21,0-.42,0-.63,0-.24,0-.49-.01-.73,0-.07,0-.14,0-.21Z"/>
  <path class="cls-6" d="M5.62,47.04c-.48-.63-.61-1.48-.28-2.13.11-.23.28-.43.5-.59.21-.16.45-.27.69-.34.7-.2,1.43,0,1.96.49,2.69,2.48,5.71,4.61,8.86,6.23,3.15,1.65,6.49,2.69,9.76,3.02.07,0,.14.02.2.03.46.1.88.34,1.27.58.38.24.73.56,1.02.95.58.77.97,1.78.93,2.85-.04,1.07-.54,2-1.41,2.63-.43.32-.95.56-1.52.71-.57.15-1.18.12-1.82.02-.09-.02-.18-.04-.27-.06-4.23-1.23-8.04-3.27-11.31-5.79-3.29-2.51-6.14-5.4-8.58-8.6Z"/>
  <ellipse class="cls-6" cx="6.3" cy="44.54" rx="3.04" ry="4.49" transform="translate(-32.99 22.62) rotate(-52.8)"/>
  <ellipse class="cls-3" cx="41.15" cy="54.85" rx="21.57" ry="12.97"/>
  <path class="cls-12" d="M54.73,44.77c1.12,3.01,1.75,6.44,1.75,10.08s-.63,7.07-1.75,10.08c4.87-2.38,7.99-6.01,7.99-10.08s-3.12-7.7-7.99-10.08Z"/>
  <g>
    <path class="cls-13" d="M45.33,13.06c7.35-8.53,20.2-9.48,28.73-2.13"/>
    <circle class="cls-6" cx="74.06" cy="10.93" r="6.06"/>
    <path class="cls-14" d="M72.89,7.12c2.36-.72,4.85.6,5.57,2.96"/>
  </g>
  <g>
    <path class="cls-13" d="M50.95,21.79c9.78-5.58,22.21-2.19,27.79,7.59"/>
    <circle class="cls-6" cx="78.74" cy="29.38" r="6.06"/>
    <path class="cls-14" d="M78.92,25.4c2.46.11,4.37,2.19,4.26,4.65"/>
  </g>
  <ellipse class="cls-9" cx="41.15" cy="35.23" rx="26.83" ry="24.95"/>
  <path class="cls-10" d="M58.17,15.94c2.88,3.97,4.55,8.76,4.55,13.91,0,13.78-12.01,24.95-26.83,24.95-6.46,0-12.39-2.12-17.02-5.66,4.82,6.66,13,11.04,22.27,11.04,14.82,0,26.83-11.17,26.83-24.95,0-7.77-3.82-14.71-9.81-19.29Z"/>
  <path class="cls-1" d="M43.09,17.3c-.69.4-1.38.72-2.27.63-1.41-.14-2.57-1.32-3.87-1.82-.98-.37-2-.61-3.04-.75-1.11-.15-2.25-.17-3.37-.08s-2.29.33-3.38.7-2.15.9-3.09,1.58-1.82,1.57-2.5,2.56c-.75,1.11-1.27,2.35-1.59,3.65-.33,1.34-.44,2.73-.41,4.11.3,12.5,12.08,18.17,18.1,20.25,2.25.78,4.69.78,6.94,0,6.02-2.08,17.8-7.75,18.1-20.25.07-2.96-.57-6-2.44-8.36-1.52-1.92-3.7-3.19-6.04-3.81-2.25-.59-4.66-.64-6.93-.17-1.13.24-2.21.65-3.22,1.19-.34.18-.66.38-.98.57Z"/>
  <path class="cls-11" d="M60.27,19.52c-.36-.45-.76-.87-1.19-1.25.47,1.61.64,3.32.6,5-.33,13.58-13.12,19.74-19.67,22.01-2.44.85-5.1.85-7.54,0-.96-.33-2.06-.75-3.23-1.26,3.01,2.01,6.14,3.33,8.43,4.12,2.25.78,4.69.78,6.94,0,6.02-2.08,17.8-7.75,18.1-20.25.07-2.96-.57-6-2.44-8.36Z"/>
  <ellipse class="cls-6" cx="41.15" cy="27.63" rx="3.68" ry="2.63"/>
  <ellipse class="cls-5" cx="60.29" cy="33.16" rx="4.42" ry="2.63"/>
  <ellipse class="cls-5" cx="22" cy="33.16" rx="4.42" ry="2.63"/>
  <path class="cls-8" d="M40.2,60.67c-1.75,0-3.17,1.42-3.17,3.17s1.42,3.17,3.17,3.17,3.17-1.42,3.17-3.17-1.42-3.17-3.17-3.17ZM39.14,65.43h-.7v-.7h-.7v-.7h1.41v1.41ZM40.55,65.43h-.7v-2.11h-1.94v-.7h2.64v-.79h.79v.79h-.79v2.82ZM41.96,64.02v1.41h-.7v-2.11h1.58v.7h-.88Z"/>
  <path class="cls-6" d="M6.3,42.39s-4.33-5.36-1.74-6.6,5.31,7.16,1.74,6.6Z"/>
  <path class="cls-6" d="M9.96,44.77s2.56-5-1.73-4.15c-4.29.86-.39,6.28,1.73,4.15Z"/>
  <circle class="cls-8" cx="52.37" cy="25.3" r="4.35"/>
  <circle class="cls-6" cx="51.84" cy="24.77" r="3.82"/>
  <circle class="cls-8" cx="54.39" cy="24.42" r="1.55"/>
  <circle class="cls-8" cx="30.52" cy="25.3" r="4.35"/>
  <circle class="cls-6" cx="29.99" cy="24.77" r="3.82"/>
  <circle class="cls-8" cx="32.54" cy="24.42" r="1.55"/>
  <path class="cls-3" d="M41.15,31.85c-1.25,0-2.38-.4-3.2-1.06-.09.33-.14.69-.14,1.06,0,2.03,1.5,3.67,3.35,3.67s3.35-1.64,3.35-3.67c0-.37-.05-.72-.14-1.06-.82.65-1.95,1.06-3.2,1.06Z"/>
  <path class="cls-12" d="M43.76,34.14c-.66-.52-1.59-.84-2.61-.84s-1.95.32-2.61.84c.61.84,1.55,1.38,2.61,1.38s2-.54,2.61-1.38Z"/>
</svg>